<svg width="1059" height="410" viewBox="0 0 1059 410" fill="none" xmlns="http://www.w3.org/2000/svg">
<path d="M30.6 28.2H0V0.2H94.9V28.2H64.3V109.5H30.6V28.2Z" fill="#EE2722"/>
<path d="M100.2 0.2H192.4V28.2H133.9V41.8H192.4V67.8H133.9V81.4H192.4V109.4H100.2V0.2Z" fill="#EE2722"/>
<path d="M231.7 81.5H244.9C265.9 81.5 269 64.5 269 54.2C269 47.3 266.8 28.2 242.5 28.2H231.8V81.5H231.7ZM198 0.2H253.3C289.7 0.2 302.6 27.2 302.6 54.7C302.6 88.3 284.8 109.5 246.7 109.5H198V0.2Z" fill="#EE2722"/>
<path d="M351 67.4L340.7 50.4L330.7 67.4H306L329.5 33L306.9 0H331.6L340.7 16.3L350.2 0H374.9L352.3 33L375.7 67.5H351V67.4Z" fill="#EE2722"/>
<path d="M24.5135 240H3.09304L35.7315 145.455H61.4915L94.0838 240H72.6634L48.9808 167.06H48.2422L24.5135 240ZM23.1747 202.837H73.7713V218.441H23.1747V202.837Z" fill="white"/>
<path d="M184.44 178.555H164.22C163.85 175.939 163.096 173.615 161.958 171.584C160.819 169.522 159.357 167.768 157.572 166.321C155.787 164.875 153.725 163.767 151.386 162.997C149.078 162.228 146.569 161.843 143.861 161.843C138.968 161.843 134.705 163.059 131.073 165.49C127.442 167.891 124.626 171.399 122.625 176.016C120.625 180.601 119.624 186.172 119.624 192.727C119.624 199.467 120.625 205.13 122.625 209.716C124.656 214.302 127.488 217.764 131.119 220.103C134.751 222.442 138.952 223.612 143.722 223.612C146.4 223.612 148.878 223.258 151.155 222.55C153.463 221.842 155.51 220.811 157.295 219.457C159.08 218.072 160.557 216.394 161.727 214.425C162.927 212.455 163.758 210.208 164.22 207.685L184.44 207.777C183.917 212.116 182.609 216.302 180.516 220.334C178.454 224.335 175.669 227.92 172.16 231.09C168.682 234.229 164.527 236.722 159.695 238.569C154.894 240.385 149.462 241.293 143.399 241.293C134.967 241.293 127.426 239.384 120.779 235.568C114.162 231.752 108.93 226.228 105.083 218.995C101.266 211.763 99.3581 203.007 99.3581 192.727C99.3581 182.417 101.297 173.646 105.175 166.413C109.053 159.181 114.316 153.672 120.963 149.886C127.611 146.07 135.09 144.162 143.399 144.162C148.878 144.162 153.956 144.931 158.634 146.47C163.343 148.009 167.513 150.256 171.144 153.21C174.776 156.134 177.731 159.719 180.008 163.967C182.316 168.214 183.793 173.076 184.44 178.555Z" fill="white"/>
<path d="M198.774 240V145.455H262.481V161.935H218.763V184.464H259.204V200.945H218.763V223.519H262.666V240H198.774Z" fill="white"/>
<path d="M308.461 240V145.455H372.169V161.935H328.451V184.464H368.891V200.945H328.451V223.519H372.354V240H308.461Z" fill="white"/>
<path d="M407.358 199.006V240H387.692V169.091H406.435V181.602H407.266C408.835 177.478 411.467 174.215 415.16 171.815C418.853 169.383 423.331 168.168 428.594 168.168C433.518 168.168 437.811 169.245 441.474 171.399C445.136 173.553 447.983 176.631 450.014 180.632C452.045 184.602 453.061 189.342 453.061 194.851V240H433.395V198.359C433.426 194.02 432.318 190.634 430.071 188.203C427.824 185.741 424.731 184.51 420.792 184.51C418.145 184.51 415.806 185.079 413.775 186.218C411.774 187.357 410.205 189.019 409.066 191.204C407.958 193.358 407.389 195.959 407.358 199.006Z" fill="white"/>
<path d="M500.507 268.068C494.136 268.068 488.673 267.191 484.118 265.437C479.594 263.713 475.993 261.359 473.316 258.374C470.638 255.388 468.899 252.034 468.099 248.31L486.288 245.863C486.842 247.279 487.719 248.602 488.92 249.833C490.12 251.064 491.705 252.049 493.675 252.788C495.675 253.557 498.106 253.942 500.969 253.942C505.247 253.942 508.77 252.895 511.54 250.803C514.341 248.741 515.741 245.278 515.741 240.415V227.443H514.91C514.049 229.413 512.756 231.275 511.033 233.029C509.309 234.783 507.093 236.214 504.385 237.322C501.676 238.43 498.445 238.984 494.69 238.984C489.366 238.984 484.519 237.753 480.148 235.291C475.809 232.798 472.346 228.997 469.761 223.888C467.207 218.749 465.93 212.255 465.93 204.407C465.93 196.374 467.238 189.665 469.854 184.279C472.47 178.893 475.947 174.862 480.287 172.184C484.657 169.506 489.443 168.168 494.644 168.168C498.614 168.168 501.938 168.845 504.616 170.199C507.293 171.522 509.448 173.184 511.079 175.185C512.741 177.154 514.018 179.093 514.91 181.001H515.649V169.091H535.177V240.692C535.177 246.725 533.699 251.772 530.745 255.835C527.79 259.897 523.697 262.944 518.465 264.975C513.264 267.037 507.278 268.068 500.507 268.068ZM500.922 224.212C504.092 224.212 506.77 223.427 508.955 221.857C511.171 220.257 512.864 217.979 514.033 215.025C515.233 212.04 515.834 208.469 515.834 204.315C515.834 200.16 515.249 196.559 514.079 193.512C512.91 190.434 511.217 188.049 509.001 186.357C506.785 184.664 504.092 183.817 500.922 183.817C497.691 183.817 494.967 184.695 492.751 186.449C490.535 188.172 488.858 190.573 487.719 193.651C486.581 196.728 486.011 200.283 486.011 204.315C486.011 208.408 486.581 211.947 487.719 214.933C488.889 217.887 490.566 220.18 492.751 221.811C494.967 223.411 497.691 224.212 500.922 224.212Z" fill="white"/>
<path d="M550.827 240V169.091H570.493V240H550.827ZM560.706 159.95C557.782 159.95 555.274 158.981 553.181 157.042C551.119 155.072 550.088 152.718 550.088 149.979C550.088 147.27 551.119 144.947 553.181 143.008C555.274 141.038 557.782 140.053 560.706 140.053C563.63 140.053 566.122 141.038 568.185 143.008C570.277 144.947 571.324 147.27 571.324 149.979C571.324 152.718 570.277 155.072 568.185 157.042C566.122 158.981 563.63 159.95 560.706 159.95Z" fill="white"/>
<path d="M605.913 199.006V240H586.246V169.091H604.989V181.602H605.82C607.39 177.478 610.021 174.215 613.714 171.815C617.408 169.383 621.886 168.168 627.148 168.168C632.073 168.168 636.366 169.245 640.028 171.399C643.691 173.553 646.538 176.631 648.569 180.632C650.6 184.602 651.616 189.342 651.616 194.851V240H631.95V198.359C631.98 194.02 630.872 190.634 628.626 188.203C626.379 185.741 623.286 184.51 619.347 184.51C616.7 184.51 614.361 185.079 612.33 186.218C610.329 187.357 608.759 189.019 607.621 191.204C606.513 193.358 605.943 195.959 605.913 199.006Z" fill="white"/>
<path d="M699.431 241.385C692.137 241.385 685.858 239.908 680.596 236.953C675.364 233.968 671.332 229.751 668.501 224.304C665.669 218.826 664.253 212.347 664.253 204.869C664.253 197.575 665.669 191.173 668.501 185.664C671.332 180.155 675.318 175.862 680.457 172.784C685.628 169.706 691.691 168.168 698.646 168.168C703.324 168.168 707.679 168.922 711.711 170.43C715.773 171.907 719.313 174.138 722.329 177.124C725.376 180.109 727.745 183.864 729.438 188.388C731.131 192.881 731.977 198.144 731.977 204.176V209.577H672.101V197.39H713.465C713.465 194.558 712.849 192.05 711.618 189.865C710.387 187.68 708.679 185.972 706.494 184.741C704.34 183.479 701.832 182.848 698.969 182.848C695.984 182.848 693.337 183.54 691.029 184.925C688.751 186.28 686.966 188.111 685.674 190.419C684.381 192.696 683.719 195.236 683.689 198.036V209.624C683.689 213.132 684.335 216.164 685.628 218.718C686.951 221.272 688.813 223.242 691.214 224.627C693.614 226.012 696.461 226.705 699.754 226.705C701.939 226.705 703.94 226.397 705.755 225.781C707.571 225.166 709.126 224.242 710.418 223.011C711.711 221.78 712.696 220.272 713.373 218.487L731.562 219.688C730.638 224.058 728.746 227.874 725.883 231.136C723.052 234.368 719.389 236.892 714.896 238.707C710.434 240.492 705.278 241.385 699.431 241.385Z" fill="white"/>
<path d="M777.126 241.385C769.832 241.385 763.554 239.908 758.291 236.953C753.059 233.968 749.027 229.751 746.196 224.304C743.364 218.826 741.949 212.347 741.949 204.869C741.949 197.575 743.364 191.173 746.196 185.664C749.027 180.155 753.013 175.862 758.153 172.784C763.323 169.706 769.386 168.168 776.341 168.168C781.019 168.168 785.374 168.922 789.406 170.43C793.469 171.907 797.008 174.138 800.024 177.124C803.071 180.109 805.441 183.864 807.133 188.388C808.826 192.881 809.672 198.144 809.672 204.176V209.577H749.797V197.39H791.16C791.16 194.558 790.545 192.05 789.314 189.865C788.083 187.68 786.375 185.972 784.189 184.741C782.035 183.479 779.527 182.848 776.665 182.848C773.679 182.848 771.032 183.54 768.724 184.925C766.447 186.28 764.662 188.111 763.369 190.419C762.077 192.696 761.415 195.236 761.384 198.036V209.624C761.384 213.132 762.03 216.164 763.323 218.718C764.646 221.272 766.508 223.242 768.909 224.627C771.31 226.012 774.156 226.705 777.449 226.705C779.635 226.705 781.635 226.397 783.451 225.781C785.267 225.166 786.821 224.242 788.113 223.011C789.406 221.78 790.391 220.272 791.068 218.487L809.257 219.688C808.334 224.058 806.441 227.874 803.579 231.136C800.747 234.368 797.085 236.892 792.591 238.707C788.129 240.492 782.974 241.385 777.126 241.385Z" fill="white"/>
<path d="M822.506 240V169.091H841.572V181.463H842.311C843.604 177.062 845.773 173.738 848.82 171.491C851.867 169.214 855.376 168.075 859.346 168.075C860.331 168.075 861.392 168.137 862.531 168.26C863.67 168.383 864.67 168.552 865.532 168.768V186.218C864.609 185.941 863.331 185.695 861.7 185.479C860.069 185.264 858.576 185.156 857.222 185.156C854.329 185.156 851.744 185.787 849.466 187.049C847.22 188.28 845.435 190.004 844.111 192.219C842.819 194.435 842.172 196.99 842.172 199.883V240H822.506Z" fill="white"/>
<path d="M875.7 240V169.091H895.366V240H875.7ZM885.579 159.95C882.655 159.95 880.147 158.981 878.054 157.042C875.992 155.072 874.961 152.718 874.961 149.979C874.961 147.27 875.992 144.947 878.054 143.008C880.147 141.038 882.655 140.053 885.579 140.053C888.503 140.053 890.996 141.038 893.058 143.008C895.15 144.947 896.197 147.27 896.197 149.979C896.197 152.718 895.15 155.072 893.058 157.042C890.996 158.981 888.503 159.95 885.579 159.95Z" fill="white"/>
<path d="M930.786 199.006V240H911.12V169.091H929.862V181.602H930.693C932.263 177.478 934.894 174.215 938.588 171.815C942.281 169.383 946.759 168.168 952.021 168.168C956.946 168.168 961.239 169.245 964.901 171.399C968.564 173.553 971.411 176.631 973.442 180.632C975.473 184.602 976.489 189.342 976.489 194.851V240H956.823V198.359C956.853 194.02 955.745 190.634 953.499 188.203C951.252 185.741 948.159 184.51 944.22 184.51C941.573 184.51 939.234 185.079 937.203 186.218C935.202 187.357 933.633 189.019 932.494 191.204C931.386 193.358 930.816 195.959 930.786 199.006Z" fill="white"/>
<path d="M1023.93 268.068C1017.56 268.068 1012.1 267.191 1007.55 265.437C1003.02 263.713 999.421 261.359 996.744 258.374C994.066 255.388 992.327 252.034 991.527 248.31L1009.72 245.863C1010.27 247.279 1011.15 248.602 1012.35 249.833C1013.55 251.064 1015.13 252.049 1017.1 252.788C1019.1 253.557 1021.53 253.942 1024.4 253.942C1028.67 253.942 1032.2 252.895 1034.97 250.803C1037.77 248.741 1039.17 245.278 1039.17 240.415V227.443H1038.34C1037.48 229.413 1036.18 231.275 1034.46 233.029C1032.74 234.783 1030.52 236.214 1027.81 237.322C1025.1 238.43 1021.87 238.984 1018.12 238.984C1012.79 238.984 1007.95 237.753 1003.58 235.291C999.237 232.798 995.774 228.997 993.189 223.888C990.634 218.749 989.357 212.255 989.357 204.407C989.357 196.374 990.665 189.665 993.281 184.279C995.897 178.893 999.375 174.862 1003.71 172.184C1008.08 169.506 1012.87 168.168 1018.07 168.168C1022.04 168.168 1025.37 168.845 1028.04 170.199C1030.72 171.522 1032.88 173.184 1034.51 175.185C1036.17 177.154 1037.45 179.093 1038.34 181.001H1039.08V169.091H1058.6V240.692C1058.6 246.725 1057.13 251.772 1054.17 255.835C1051.22 259.897 1047.12 262.944 1041.89 264.975C1036.69 267.037 1030.71 268.068 1023.93 268.068ZM1024.35 224.212C1027.52 224.212 1030.2 223.427 1032.38 221.857C1034.6 220.257 1036.29 217.979 1037.46 215.025C1038.66 212.04 1039.26 208.469 1039.26 204.315C1039.26 200.16 1038.68 196.559 1037.51 193.512C1036.34 190.434 1034.64 188.049 1032.43 186.357C1030.21 184.664 1027.52 183.817 1024.35 183.817C1021.12 183.817 1018.39 184.695 1016.18 186.449C1013.96 188.172 1012.29 190.573 1011.15 193.651C1010.01 196.728 1009.44 200.283 1009.44 204.315C1009.44 208.408 1010.01 211.947 1011.15 214.933C1012.32 217.887 1013.99 220.18 1016.18 221.811C1018.39 223.411 1021.12 224.212 1024.35 224.212Z" fill="white"/>
<path d="M91.6371 319.555H71.4169C71.0476 316.939 70.2936 314.615 69.1548 312.584C68.0161 310.522 66.5542 308.768 64.7692 307.321C62.9841 305.875 60.9221 304.767 58.5831 303.997C56.2749 303.228 53.7666 302.843 51.0582 302.843C46.1648 302.843 41.9022 304.059 38.2706 306.49C34.639 308.891 31.8229 312.399 29.8224 317.016C27.822 321.601 26.8217 327.172 26.8217 333.727C26.8217 340.467 27.822 346.13 29.8224 350.716C31.8537 355.302 34.6851 358.764 38.3168 361.103C41.9484 363.442 46.1494 364.612 50.9197 364.612C53.5973 364.612 56.0748 364.258 58.3523 363.55C60.6605 362.842 62.7072 361.811 64.4922 360.457C66.2772 359.072 67.7545 357.394 68.924 355.425C70.1243 353.455 70.9553 351.208 71.4169 348.685L91.6371 348.777C91.1139 353.116 89.8059 357.302 87.7131 361.334C85.651 365.335 82.8658 368.92 79.3572 372.09C75.8795 375.229 71.7247 377.722 66.8928 379.569C62.0916 381.385 56.6596 382.293 50.5966 382.293C42.1638 382.293 34.6236 380.384 27.9759 376.568C21.3589 372.752 16.1269 367.228 12.2798 359.995C8.46354 352.763 6.5554 344.007 6.5554 333.727C6.5554 323.417 8.49432 314.646 12.3722 307.413C16.25 300.181 21.5128 294.672 28.1605 290.886C34.8082 287.07 42.2869 285.162 50.5966 285.162C56.0748 285.162 61.1529 285.931 65.831 287.47C70.5398 289.009 74.71 291.256 78.3416 294.21C81.9732 297.134 84.9278 300.719 87.2053 304.967C89.5135 309.214 90.9908 314.076 91.6371 319.555Z" fill="white"/>
<path d="M137.64 382.385C130.469 382.385 124.268 380.862 119.036 377.815C113.835 374.737 109.818 370.459 106.987 364.981C104.155 359.472 102.74 353.086 102.74 345.822C102.74 338.498 104.155 332.096 106.987 326.618C109.818 321.109 113.835 316.831 119.036 313.784C124.268 310.706 130.469 309.168 137.64 309.168C144.811 309.168 150.997 310.706 156.199 313.784C161.431 316.831 165.462 321.109 168.294 326.618C171.125 332.096 172.541 338.498 172.541 345.822C172.541 353.086 171.125 359.472 168.294 364.981C165.462 370.459 161.431 374.737 156.199 377.815C150.997 380.862 144.811 382.385 137.64 382.385ZM137.733 367.151C140.995 367.151 143.719 366.227 145.904 364.381C148.089 362.503 149.735 359.949 150.843 356.717C151.982 353.486 152.551 349.808 152.551 345.684C152.551 341.56 151.982 337.882 150.843 334.651C149.735 331.419 148.089 328.865 145.904 326.987C143.719 325.11 140.995 324.171 137.733 324.171C134.44 324.171 131.67 325.11 129.423 326.987C127.207 328.865 125.53 331.419 124.391 334.651C123.283 337.882 122.729 341.56 122.729 345.684C122.729 349.808 123.283 353.486 124.391 356.717C125.53 359.949 127.207 362.503 129.423 364.381C131.67 366.227 134.44 367.151 137.733 367.151Z" fill="white"/>
<path d="M204.995 286.455V381H185.328V286.455H204.995Z" fill="white"/>
<path d="M240.415 286.455V381H220.748V286.455H240.415Z" fill="white"/>
<path d="M288.484 382.385C281.19 382.385 274.911 380.908 269.648 377.953C264.416 374.968 260.385 370.751 257.553 365.304C254.722 359.826 253.306 353.347 253.306 345.869C253.306 338.575 254.722 332.173 257.553 326.664C260.385 321.155 264.37 316.862 269.51 313.784C274.68 310.706 280.743 309.168 287.699 309.168C292.377 309.168 296.732 309.922 300.763 311.43C304.826 312.907 308.365 315.138 311.381 318.124C314.428 321.109 316.798 324.864 318.491 329.388C320.183 333.881 321.03 339.144 321.03 345.176V350.577H261.154V338.39H302.518C302.518 335.558 301.902 333.05 300.671 330.865C299.44 328.68 297.732 326.972 295.547 325.741C293.393 324.479 290.884 323.848 288.022 323.848C285.037 323.848 282.39 324.54 280.082 325.925C277.804 327.28 276.019 329.111 274.727 331.419C273.434 333.696 272.772 336.236 272.741 339.036V350.624C272.741 354.132 273.388 357.164 274.68 359.718C276.004 362.272 277.866 364.242 280.266 365.627C282.667 367.012 285.514 367.705 288.807 367.705C290.992 367.705 292.992 367.397 294.808 366.781C296.624 366.166 298.178 365.242 299.471 364.011C300.764 362.78 301.748 361.272 302.425 359.487L320.614 360.688C319.691 365.058 317.798 368.874 314.936 372.136C312.105 375.368 308.442 377.892 303.949 379.707C299.486 381.492 294.331 382.385 288.484 382.385Z" fill="white"/>
<path d="M365.81 409.068C359.439 409.068 353.976 408.191 349.421 406.437C344.897 404.713 341.296 402.359 338.619 399.374C335.941 396.388 334.202 393.034 333.402 389.31L351.591 386.863C352.145 388.279 353.022 389.602 354.222 390.833C355.423 392.064 357.008 393.049 358.977 393.788C360.978 394.557 363.409 394.942 366.271 394.942C370.549 394.942 374.073 393.895 376.843 391.803C379.644 389.741 381.044 386.278 381.044 381.415V368.443H380.213C379.351 370.413 378.059 372.275 376.335 374.029C374.612 375.783 372.396 377.214 369.688 378.322C366.979 379.43 363.748 379.984 359.993 379.984C354.669 379.984 349.821 378.753 345.451 376.291C341.112 373.798 337.649 369.997 335.064 364.888C332.509 359.749 331.232 353.255 331.232 345.407C331.232 337.374 332.54 330.665 335.156 325.279C337.772 319.893 341.25 315.862 345.589 313.184C349.96 310.506 354.746 309.168 359.947 309.168C363.917 309.168 367.241 309.845 369.918 311.199C372.596 312.522 374.75 314.184 376.381 316.185C378.043 318.154 379.321 320.093 380.213 322.001H380.952V310.091H400.479V381.692C400.479 387.725 399.002 392.772 396.048 396.835C393.093 400.897 389 403.944 383.768 405.975C378.567 408.037 372.58 409.068 365.81 409.068ZM366.225 365.212C369.395 365.212 372.073 364.427 374.258 362.857C376.474 361.257 378.166 358.979 379.336 356.025C380.536 353.04 381.136 349.469 381.136 345.315C381.136 341.16 380.552 337.559 379.382 334.512C378.213 331.434 376.52 329.049 374.304 327.357C372.088 325.664 369.395 324.817 366.225 324.817C362.994 324.817 360.27 325.695 358.054 327.449C355.838 329.172 354.161 331.573 353.022 334.651C351.883 337.728 351.314 341.283 351.314 345.315C351.314 349.408 351.883 352.947 353.022 355.933C354.192 358.887 355.869 361.18 358.054 362.811C360.27 364.411 362.994 365.212 366.225 365.212Z" fill="white"/>
<path d="M448.445 382.385C441.151 382.385 434.872 380.908 429.609 377.953C424.377 374.968 420.346 370.751 417.514 365.304C414.683 359.826 413.267 353.347 413.267 345.869C413.267 338.575 414.683 332.173 417.514 326.664C420.346 321.155 424.331 316.862 429.471 313.784C434.641 310.706 440.704 309.168 447.66 309.168C452.338 309.168 456.693 309.922 460.724 311.43C464.787 312.907 468.326 315.138 471.342 318.124C474.389 321.109 476.759 324.864 478.452 329.388C480.144 333.881 480.991 339.144 480.991 345.176V350.577H421.115V338.39H462.479C462.479 335.558 461.863 333.05 460.632 330.865C459.401 328.68 457.693 326.972 455.508 325.741C453.353 324.479 450.845 323.848 447.983 323.848C444.998 323.848 442.351 324.54 440.043 325.925C437.765 327.28 435.98 329.111 434.688 331.419C433.395 333.696 432.733 336.236 432.702 339.036V350.624C432.702 354.132 433.349 357.164 434.641 359.718C435.965 362.272 437.827 364.242 440.227 365.627C442.628 367.012 445.475 367.705 448.768 367.705C450.953 367.705 452.953 367.397 454.769 366.781C456.585 366.166 458.139 365.242 459.432 364.011C460.724 362.78 461.709 361.272 462.386 359.487L480.575 360.688C479.652 365.058 477.759 368.874 474.897 372.136C472.066 375.368 468.403 377.892 463.91 379.707C459.447 381.492 454.292 382.385 448.445 382.385Z" fill="white"/>
</svg>
