<svg xmlns="http://www.w3.org/2000/svg" width="1059" height="410" fill="none" viewBox="0 0 1059 410"><path fill="#ee2722" d="M30.6 28.2H0V.2h94.9v28H64.3v81.3H30.6zm69.6-28h92.2v28h-58.5v13.6h58.5v26h-58.5v13.6h58.5v28h-92.2zm131.5 81.3h13.2c21 0 24.1-17 24.1-27.3 0-6.9-2.2-26-26.5-26h-10.7v53.3zM198 .2h55.3c36.4 0 49.3 27 49.3 54.5 0 33.6-17.8 54.8-55.9 54.8H198zm153 67.2-10.3-17-10 17H306L329.5 33 306.9 0h24.7l9.1 16.3L350.2 0h24.7l-22.6 33 23.4 34.5H351z"/><path fill="#fff" d="M24.514 240H3.093l32.638-94.545h25.76L94.085 240h-21.42L48.98 167.06h-.739zm-1.34-37.163h50.597v15.604H23.175zm161.266-24.282h-20.22q-.555-3.924-2.262-6.971a17.8 17.8 0 0 0-4.386-5.263q-2.678-2.169-6.186-3.324-3.462-1.154-7.525-1.154-7.34 0-12.788 3.647-5.446 3.601-8.448 10.526-3 6.878-3.001 16.711 0 10.11 3.001 16.989 3.047 6.879 8.494 10.387 5.448 3.509 12.603 3.509 4.017 0 7.433-1.062 3.462-1.062 6.14-3.093a17.8 17.8 0 0 0 4.432-5.032q1.8-2.955 2.493-6.74l20.22.092q-.784 6.509-3.924 12.557-3.093 6.001-8.356 10.756-5.217 4.708-12.465 7.479-7.202 2.724-16.296 2.724-12.649 0-22.62-5.725-9.925-5.724-15.696-16.573-5.725-10.848-5.725-26.268 0-15.465 5.817-26.314t15.788-16.527q9.972-5.724 22.436-5.724 8.218 0 15.235 2.308 7.064 2.309 12.51 6.74 5.448 4.385 8.864 10.757 3.462 6.37 4.432 14.588M198.774 240v-94.545h63.707v16.48h-43.718v22.529h40.441v16.481h-40.441v22.574h43.903V240zm109.687 0v-94.545h63.708v16.48h-43.718v22.529h40.44v16.481h-40.44v22.574h43.903V240zm98.897-40.994V240h-19.666v-70.909h18.743v12.511h.831q2.354-6.186 7.894-9.787 5.54-3.647 13.434-3.647 7.386 0 12.88 3.231 5.493 3.231 8.54 9.233 3.047 5.955 3.047 14.219V240h-19.666v-41.641q.047-6.509-3.324-10.156-3.37-3.693-9.279-3.693-3.97 0-7.017 1.708-3.001 1.709-4.709 4.986-1.662 3.231-1.708 7.802m93.149 69.062q-9.556 0-16.389-2.631-6.786-2.586-10.802-7.063-4.017-4.478-5.217-10.064l18.189-2.447q.83 2.124 2.632 3.97 1.8 1.847 4.755 2.955 3 1.154 7.294 1.154 6.416 0 10.571-3.139 4.201-3.093 4.201-10.388v-12.972h-.831q-1.292 2.955-3.877 5.586t-6.648 4.293-9.695 1.662q-7.986 0-14.542-3.693-6.509-3.74-10.387-11.403-3.831-7.709-3.831-19.481 0-12.05 3.924-20.128t10.433-12.095q6.555-4.016 14.357-4.016 5.955 0 9.972 2.031 4.016 1.985 6.463 4.986 2.493 2.954 3.831 5.816h.739v-11.91h19.528v71.601q0 9.049-4.432 15.143-4.432 6.093-12.28 9.14-7.802 3.093-17.958 3.093m.415-43.856q4.755 0 8.033-2.355 3.324-2.4 5.078-6.832 1.8-4.478 1.801-10.71t-1.755-10.803q-1.754-4.617-5.078-7.155-3.324-2.54-8.079-2.54-4.847 0-8.171 2.632-3.324 2.585-5.032 7.202-1.708 4.616-1.708 10.664 0 6.14 1.708 10.618 1.755 4.431 5.032 6.878 3.324 2.4 8.171 2.401M550.827 240v-70.909h19.666V240zm9.879-80.05q-4.386 0-7.525-2.908-3.093-2.955-3.093-7.063 0-4.063 3.093-6.971 3.14-2.955 7.525-2.955t7.479 2.955q3.138 2.908 3.139 6.971 0 4.108-3.139 7.063-3.094 2.908-7.479 2.908m45.207 39.056V240h-19.667v-70.909h18.743v12.511h.831q2.355-6.186 7.894-9.787 5.541-3.647 13.434-3.647 7.387 0 12.88 3.231 5.495 3.231 8.541 9.233 3.047 5.955 3.047 14.219V240H631.95v-41.641q.045-6.509-3.324-10.156-3.37-3.693-9.279-3.693-3.97 0-7.017 1.708-3.002 1.709-4.709 4.986-1.663 3.231-1.708 7.802m93.518 42.379q-10.942 0-18.835-4.432-7.848-4.478-12.095-12.649-4.248-8.218-4.248-19.435 0-10.941 4.248-19.205 4.247-8.263 11.956-12.88 7.757-4.617 18.189-4.616 7.017 0 13.065 2.262 6.093 2.215 10.618 6.694 4.57 4.478 7.109 11.264 2.54 6.74 2.539 15.788v5.401h-59.876V197.39h41.364q0-4.248-1.847-7.525a13.23 13.23 0 0 0-5.124-5.124q-3.23-1.893-7.525-1.893-4.478 0-7.94 2.077a14.57 14.57 0 0 0-5.355 5.494q-1.94 3.416-1.985 7.617v11.588q0 5.262 1.939 9.094 1.984 3.831 5.586 5.909 3.6 2.078 8.54 2.078 3.278 0 6.001-.924 2.724-.923 4.663-2.77t2.955-4.524l18.189 1.201q-1.385 6.555-5.679 11.448-4.247 4.848-10.987 7.571-6.694 2.678-15.465 2.678m77.695 0q-10.94 0-18.835-4.432-7.848-4.478-12.095-12.649-4.247-8.218-4.247-19.435 0-10.941 4.247-19.205t11.957-12.88q7.755-4.617 18.188-4.616 7.017 0 13.065 2.262 6.094 2.215 10.618 6.694 4.57 4.478 7.109 11.264 2.54 6.74 2.539 15.788v5.401h-59.875V197.39h41.363q0-4.248-1.846-7.525a13.2 13.2 0 0 0-5.125-5.124q-3.231-1.893-7.524-1.893-4.479 0-7.941 2.077a14.6 14.6 0 0 0-5.355 5.494q-1.938 3.416-1.985 7.617v11.588q0 5.262 1.939 9.094 1.985 3.831 5.586 5.909t8.54 2.078q3.278 0 6.002-.924 2.724-.923 4.662-2.77 1.94-1.846 2.955-4.524l18.189 1.201q-1.385 6.555-5.678 11.448-4.247 4.848-10.988 7.571-6.693 2.678-15.465 2.678m45.38-1.385v-70.909h19.066v12.372h.739q1.939-6.602 6.509-9.972 4.57-3.416 10.526-3.416 1.477 0 3.185.185 1.708.184 3.001.508v17.45q-1.385-.415-3.832-.739-2.447-.323-4.478-.323-4.34 0-7.756 1.893-3.369 1.847-5.355 5.17-1.938 3.324-1.939 7.664V240zm53.194 0v-70.909h19.666V240zm9.879-80.05q-4.386 0-7.525-2.908-3.093-2.955-3.093-7.063 0-4.063 3.093-6.971 3.14-2.955 7.525-2.955 4.386 0 7.479 2.955 3.138 2.908 3.139 6.971 0 4.108-3.139 7.063-3.093 2.908-7.479 2.908m45.207 39.056V240H911.12v-70.909h18.742v12.511h.831q2.355-6.186 7.895-9.787 5.54-3.647 13.433-3.647 7.387 0 12.88 3.231 5.495 3.231 8.541 9.233 3.047 5.955 3.047 14.219V240h-19.666v-41.641q.045-6.509-3.324-10.156-3.37-3.693-9.279-3.693-3.97 0-7.017 1.708-3.001 1.709-4.709 4.986-1.662 3.231-1.708 7.802m93.144 69.062q-9.555 0-16.38-2.631c-4.53-1.724-8.129-4.078-10.806-7.063q-4.017-4.478-5.217-10.064l18.193-2.447c.55 1.416 1.43 2.739 2.63 3.97s2.78 2.216 4.75 2.955c2 .769 4.43 1.154 7.3 1.154 4.27 0 7.8-1.047 10.57-3.139q4.2-3.093 4.2-10.388v-12.972h-.83c-.86 1.97-2.16 3.832-3.88 5.586s-3.94 3.185-6.65 4.293q-4.065 1.662-9.69 1.662c-5.33 0-10.17-1.231-14.54-3.693q-6.514-3.74-10.391-11.403-3.832-7.709-3.832-19.481 0-12.05 3.924-20.128t10.429-12.095c4.37-2.678 9.16-4.016 14.36-4.016 3.97 0 7.3.677 9.97 2.031 2.68 1.323 4.84 2.985 6.47 4.986 1.66 1.969 2.94 3.908 3.83 5.816h.74v-11.91h19.52v71.601c0 6.033-1.47 11.08-4.43 15.143-2.95 4.062-7.05 7.109-12.28 9.14-5.2 2.062-11.18 3.093-17.96 3.093m.42-43.856c3.17 0 5.85-.785 8.03-2.355 2.22-1.6 3.91-3.878 5.08-6.832q1.8-4.478 1.8-10.71c0-4.155-.58-7.756-1.75-10.803-1.17-3.078-2.87-5.463-5.08-7.155-2.22-1.693-4.91-2.54-8.08-2.54-3.23 0-5.96.878-8.17 2.632-2.22 1.723-3.89 4.124-5.03 7.202q-1.71 4.616-1.71 10.664 0 6.14 1.71 10.618c1.17 2.954 2.84 5.247 5.03 6.878 2.21 1.6 4.94 2.401 8.17 2.401M91.637 319.555h-20.22q-.554-3.924-2.262-6.971a17.7 17.7 0 0 0-4.386-5.263q-2.677-2.169-6.186-3.324-3.462-1.154-7.525-1.154-7.34 0-12.787 3.647-5.448 3.601-8.449 10.526-3 6.878-3 16.711 0 10.11 3 16.989 3.048 6.879 8.495 10.387t12.603 3.509q4.016 0 7.432-1.062 3.463-1.062 6.14-3.093a17.8 17.8 0 0 0 4.432-5.032q1.8-2.955 2.493-6.74l20.22.092q-.785 6.509-3.924 12.557-3.093 6.001-8.356 10.756-5.216 4.709-12.464 7.479-7.202 2.724-16.296 2.724-12.65 0-22.621-5.725-9.926-5.724-15.696-16.573-5.725-10.848-5.725-26.268 0-15.465 5.817-26.314 5.816-10.848 15.789-16.527 9.97-5.724 22.436-5.724 8.217 0 15.234 2.308 7.063 2.309 12.51 6.74 5.448 4.385 8.864 10.757 3.463 6.37 4.432 14.588m46.003 62.83q-10.756 0-18.604-4.57-7.802-4.617-12.049-12.834-4.248-8.263-4.247-19.159 0-10.986 4.247-19.204 4.247-8.263 12.049-12.834 7.848-4.616 18.604-4.616t18.559 4.616q7.848 4.57 12.095 12.834 4.247 8.218 4.247 19.204 0 10.896-4.247 19.159-4.247 8.217-12.095 12.834-7.803 4.57-18.559 4.57m.093-15.234q4.893 0 8.171-2.77 3.277-2.817 4.939-7.664 1.708-4.847 1.708-11.033t-1.708-11.033q-1.662-4.848-4.939-7.664t-8.171-2.816q-4.94 0-8.31 2.816-3.324 2.816-5.032 7.664-1.662 4.847-1.662 11.033t1.662 11.033q1.708 4.848 5.032 7.664 3.37 2.77 8.31 2.77m67.262-80.696V381h-19.667v-94.545zm35.42 0V381h-19.667v-94.545zm48.069 95.93q-10.941 0-18.836-4.432-7.847-4.478-12.095-12.649-4.247-8.217-4.247-19.435 0-10.941 4.247-19.205 4.248-8.263 11.957-12.88 7.755-4.616 18.189-4.616 7.017 0 13.064 2.262 6.094 2.215 10.618 6.694 4.57 4.478 7.11 11.264 2.538 6.74 2.539 15.788v5.401h-59.876V338.39h41.364q0-4.248-1.847-7.525a13.23 13.23 0 0 0-5.124-5.124q-3.231-1.893-7.525-1.893-4.478 0-7.94 2.077a14.57 14.57 0 0 0-5.355 5.494q-1.94 3.416-1.986 7.617v11.588q0 5.262 1.939 9.094 1.986 3.831 5.586 5.909 3.602 2.078 8.541 2.078 3.277 0 6.001-.924 2.724-.923 4.663-2.77t2.954-4.524l18.189 1.201q-1.385 6.555-5.678 11.448-4.247 4.848-10.987 7.571-6.695 2.678-15.465 2.678m77.326 26.683q-9.557 0-16.389-2.631-6.786-2.586-10.802-7.063-4.017-4.478-5.217-10.064l18.189-2.447q.831 2.124 2.631 3.97 1.802 1.846 4.755 2.955 3.001 1.154 7.294 1.154 6.417 0 10.572-3.139 4.201-3.093 4.201-10.388v-12.972h-.831q-1.293 2.955-3.878 5.586t-6.647 4.293-9.695 1.662q-7.986 0-14.542-3.693-6.509-3.74-10.387-11.403-3.832-7.709-3.832-19.481 0-12.05 3.924-20.128 3.924-8.079 10.433-12.095 6.556-4.017 14.358-4.016 5.955 0 9.971 2.031 4.017 1.985 6.463 4.986 2.494 2.954 3.832 5.816h.739v-11.91h19.527v71.601q0 9.049-4.431 15.143-4.432 6.093-12.28 9.14-7.802 3.093-17.958 3.093m.415-43.856q4.755 0 8.033-2.355 3.324-2.4 5.078-6.832 1.8-4.478 1.8-10.71t-1.754-10.803q-1.754-4.617-5.078-7.155-3.324-2.54-8.079-2.54-4.847 0-8.171 2.632-3.324 2.585-5.032 7.202-1.708 4.616-1.708 10.664 0 6.14 1.708 10.618 1.755 4.431 5.032 6.878 3.324 2.4 8.171 2.401m82.22 17.173q-10.941 0-18.836-4.432-7.847-4.478-12.095-12.649-4.247-8.217-4.247-19.435 0-10.941 4.247-19.205t11.957-12.88q7.755-4.616 18.189-4.616 7.017 0 13.064 2.262 6.094 2.215 10.618 6.694 4.57 4.478 7.11 11.264 2.538 6.74 2.539 15.788v5.401h-59.876V338.39h41.364q0-4.248-1.847-7.525a13.23 13.23 0 0 0-5.124-5.124q-3.232-1.893-7.525-1.893-4.478 0-7.94 2.077a14.57 14.57 0 0 0-5.355 5.494q-1.94 3.416-1.986 7.617v11.588q0 5.262 1.939 9.094 1.986 3.831 5.586 5.909t8.541 2.078q3.277 0 6.001-.924 2.724-.923 4.663-2.77 1.938-1.846 2.954-4.524l18.189 1.201q-1.385 6.555-5.678 11.448-4.247 4.848-10.987 7.571-6.695 2.678-15.465 2.678"/></svg>