<svg xmlns="http://www.w3.org/2000/svg" width="1939" height="275" fill="none" viewBox="0 0 1939 275"><path fill="#ee2722" d="M69.327 63.869H0V.453h215.003v63.415h-69.326V248h-76.35zM227.011.453h208.886v63.416H303.361V94.67h132.536v58.886H303.361v30.802h132.536v63.416H227.011zm297.923 184.131h29.906c47.577 0 54.6-38.502 54.6-61.83 0-15.627-4.984-58.886-60.037-58.886h-24.242v120.716zM448.584.453h125.287c82.467 0 111.693 61.15 111.693 123.434 0 76.098-40.328 124.113-126.646 124.113H448.584zM795.218 152.65l-23.336-38.502-22.655 38.502h-55.96l53.241-77.91L695.306 0h55.96l20.616 36.917L793.405 0h55.96l-51.202 74.74 53.014 78.137h-55.959z"/><path fill="#000" d="M904.086 105.147h-21.421l32.639-94.546h25.76l32.592 94.546h-21.42l-23.683-72.94h-.738zm-1.339-37.163h50.597v15.604h-50.597zm161.263-24.282h-20.22c-.37-2.616-1.12-4.94-2.26-6.971-1.14-2.062-2.6-3.817-4.39-5.263q-2.67-2.17-6.18-3.324-3.465-1.154-7.53-1.154-7.335 0-12.78 3.647c-3.64 2.4-6.45 5.909-8.45 10.526q-3.002 6.878-3.003 16.711.001 10.11 3.003 16.989 3.045 6.878 8.49 10.387 5.445 3.508 12.6 3.508 4.02 0 7.44-1.061c2.31-.708 4.35-1.74 6.14-3.094a17.9 17.9 0 0 0 4.43-5.031q1.8-2.955 2.49-6.74l20.22.092c-.52 4.34-1.83 8.525-3.92 12.557-2.06 4-4.85 7.586-8.36 10.756-3.48 3.14-7.63 5.632-12.46 7.479-4.8 1.816-10.24 2.723-16.3 2.723q-12.645 0-22.62-5.724-9.924-5.724-15.695-16.573-5.724-10.85-5.724-26.268 0-15.465 5.816-26.314t15.793-16.527c6.64-3.816 14.12-5.724 22.43-5.724q8.22 0 15.24 2.308c4.7 1.539 8.88 3.785 12.51 6.74 3.63 2.924 6.58 6.51 8.86 10.756 2.31 4.248 3.79 9.11 4.43 14.589m14.34 61.445V10.601h63.7v16.481h-43.71v22.529h40.44v16.48h-40.44v22.575h43.9v16.481zm109.68 0V10.601h63.71v16.481h-43.72v22.529h40.44v16.48h-40.44v22.575h43.91v16.481zm98.9-40.994v40.994h-19.67v-70.91h18.75v12.511h.83q2.355-6.186 7.89-9.786c3.7-2.432 8.17-3.648 13.44-3.648 4.92 0 9.21 1.078 12.88 3.232 3.66 2.154 6.51 5.232 8.54 9.233 2.03 3.97 3.04 8.71 3.04 14.219v45.149h-19.66v-41.64q.045-6.51-3.33-10.157c-2.24-2.462-5.34-3.693-9.28-3.693-2.64 0-4.98.57-7.01 1.708q-3 1.708-4.71 4.986-1.665 3.231-1.71 7.802m93.15 69.062c-6.37 0-11.83-.877-16.39-2.631q-6.78-2.585-10.8-7.064-4.02-4.478-5.22-10.064l18.19-2.446c.55 1.415 1.43 2.739 2.63 3.97s2.79 2.216 4.76 2.954q3 1.155 7.29 1.155c4.28 0 7.8-1.047 10.57-3.14q4.2-3.093 4.2-10.387V92.59h-.83c-.86 1.97-2.15 3.832-3.88 5.586-1.72 1.754-3.93 3.185-6.64 4.293s-5.94 1.662-9.7 1.662c-5.32 0-10.17-1.231-14.54-3.693-4.34-2.493-7.8-6.294-10.39-11.403-2.55-5.14-3.83-11.633-3.83-19.481q0-12.05 3.93-20.128c2.61-5.386 6.09-9.418 10.43-12.095 4.37-2.678 9.15-4.017 14.36-4.017 3.97 0 7.29.678 9.97 2.032 2.68 1.323 4.83 2.985 6.46 4.986 1.66 1.97 2.94 3.908 3.83 5.816h.74v-11.91h19.53v71.601c0 6.032-1.48 11.08-4.43 15.142-2.96 4.063-7.05 7.11-12.28 9.141-5.2 2.062-11.19 3.093-17.96 3.093m.41-43.856q4.755 0 8.04-2.355c2.21-1.6 3.91-3.878 5.08-6.832q1.8-4.479 1.8-10.71c0-4.155-.59-7.756-1.76-10.803-1.17-3.078-2.86-5.463-5.08-7.156-2.21-1.692-4.91-2.539-8.08-2.539-3.23 0-5.95.877-8.17 2.632-2.21 1.723-3.89 4.124-5.03 7.201q-1.71 4.617-1.71 10.665 0 6.14 1.71 10.617c1.17 2.955 2.85 5.248 5.03 6.879 2.22 1.6 4.94 2.4 8.17 2.4m49.91 15.789v-70.91h19.67v70.91zm9.88-80.05c-2.93 0-5.43-.97-7.53-2.908q-3.09-2.955-3.09-7.063 0-4.063 3.09-6.971c2.1-1.97 4.6-2.955 7.53-2.955 2.92 0 5.41.985 7.48 2.955 2.09 1.939 3.14 4.262 3.14 6.97 0 2.74-1.05 5.094-3.14 7.064-2.07 1.939-4.56 2.908-7.48 2.908m45.2 39.056v40.994h-19.66v-70.91h18.74v12.511h.83c1.57-4.124 4.2-7.386 7.9-9.786 3.69-2.432 8.17-3.648 13.43-3.648 4.92 0 9.22 1.078 12.88 3.232s6.51 5.232 8.54 9.233c2.03 3.97 3.05 8.71 3.05 14.219v45.149h-19.67v-41.64c.03-4.34-1.08-7.726-3.32-10.157-2.25-2.462-5.34-3.693-9.28-3.693q-3.975 0-7.02 1.708-3 1.708-4.71 4.986-1.65 3.231-1.71 7.802m93.52 42.379c-7.29 0-13.57-1.478-18.83-4.432-5.23-2.985-9.27-7.202-12.1-12.65-2.83-5.477-4.24-11.956-4.24-19.435 0-7.294 1.41-13.695 4.24-19.204s6.82-9.802 11.96-12.88c5.17-3.078 11.23-4.616 18.19-4.616 4.68 0 9.03.754 13.06 2.262 4.07 1.477 7.6 3.708 10.62 6.693q4.575 4.478 7.11 11.265c1.69 4.493 2.54 9.756 2.54 15.788v5.401h-59.88V62.537h41.37c0-2.832-.62-5.34-1.85-7.525a13.24 13.24 0 0 0-5.12-5.124q-3.24-1.893-7.53-1.893c-2.98 0-5.63.692-7.94 2.077a14.5 14.5 0 0 0-5.35 5.494c-1.3 2.277-1.96 4.816-1.99 7.617V74.77c0 3.509.65 6.54 1.94 9.095 1.32 2.554 3.19 4.524 5.59 5.909s5.24 2.077 8.54 2.077q3.27 0 6-.923c1.81-.615 3.37-1.539 4.66-2.77 1.29-1.23 2.28-2.739 2.95-4.524l18.19 1.2q-1.38 6.555-5.67 11.45c-2.84 3.23-6.5 5.754-10.99 7.57-4.46 1.785-9.62 2.678-15.47 2.678m77.7 0c-7.3 0-13.57-1.478-18.84-4.432q-7.845-4.478-12.09-12.65c-2.83-5.477-4.25-11.956-4.25-19.435 0-7.294 1.42-13.695 4.25-19.204s6.82-9.802 11.95-12.88c5.18-3.078 11.24-4.616 18.19-4.616 4.68 0 9.04.754 13.07 2.262q6.09 2.215 10.62 6.693 4.56 4.478 7.11 11.265c1.69 4.493 2.53 9.756 2.53 15.788v5.401h-59.87V62.537h41.36c0-2.832-.61-5.34-1.84-7.525-1.24-2.185-2.94-3.893-5.13-5.124-2.15-1.262-4.66-1.893-7.52-1.893-2.99 0-5.64.692-7.94 2.077a14.54 14.54 0 0 0-5.36 5.494q-1.935 3.416-1.98 7.617V74.77c0 3.509.64 6.54 1.94 9.095q1.98 3.831 5.58 5.909c2.4 1.385 5.25 2.077 8.54 2.077q3.285 0 6-.923c1.82-.615 3.37-1.539 4.67-2.77 1.29-1.23 2.27-2.739 2.95-4.524l18.19 1.2c-.92 4.37-2.82 8.187-5.68 11.45-2.83 3.23-6.49 5.754-10.99 7.57-4.46 1.785-9.61 2.678-15.46 2.678m45.38-1.385v-70.91h19.06V46.61h.74q1.95-6.602 6.51-9.972 4.575-3.416 10.53-3.416 1.47 0 3.18.185 1.71.184 3 .508v17.45c-.92-.277-2.2-.523-3.83-.739s-3.12-.323-4.48-.323c-2.89 0-5.47.631-7.75 1.893-2.25 1.23-4.03 2.954-5.36 5.17-1.29 2.216-1.94 4.77-1.94 7.664v40.117zm53.19 0v-70.91h19.67v70.91zm9.88-80.05c-2.92 0-5.43-.97-7.52-2.908-2.07-1.97-3.1-4.324-3.1-7.063 0-2.709 1.03-5.032 3.1-6.971 2.09-1.97 4.6-2.955 7.52-2.955s5.42.985 7.48 2.955c2.09 1.939 3.14 4.262 3.14 6.97 0 2.74-1.05 5.094-3.14 7.064-2.06 1.939-4.56 2.908-7.48 2.908m45.21 39.056v40.994h-19.67v-70.91h18.74v12.511h.84q2.355-6.186 7.89-9.786c3.69-2.432 8.17-3.648 13.43-3.648 4.93 0 9.22 1.078 12.88 3.232 3.67 2.154 6.51 5.232 8.54 9.233 2.04 3.97 3.05 8.71 3.05 14.219v45.149h-19.67v-41.64c.04-4.34-1.07-7.726-3.32-10.157-2.25-2.462-5.34-3.693-9.28-3.693q-3.96 0-7.02 1.708c-2 1.139-3.57 2.8-4.7 4.986q-1.665 3.231-1.71 7.802m93.15 69.062c-6.37 0-11.84-.877-16.39-2.631q-6.795-2.585-10.8-7.064-4.02-4.478-5.22-10.064l18.19-2.446c.55 1.415 1.43 2.739 2.63 3.97s2.78 2.216 4.75 2.954c2 .77 4.44 1.155 7.3 1.155 4.28 0 7.8-1.047 10.57-3.14q4.2-3.093 4.2-10.387V92.59h-.83c-.86 1.97-2.15 3.832-3.88 5.586-1.72 1.754-3.94 3.185-6.65 4.293-2.7 1.108-5.94 1.662-9.69 1.662-5.32 0-10.17-1.231-14.54-3.693-4.34-2.493-7.8-6.294-10.39-11.403-2.55-5.14-3.83-11.633-3.83-19.481 0-8.033 1.31-14.742 3.92-20.128q3.93-8.08 10.44-12.095c4.37-2.678 9.15-4.017 14.35-4.017 3.97 0 7.3.678 9.98 2.032 2.67 1.323 4.83 2.985 6.46 4.986 1.66 1.97 2.94 3.908 3.83 5.816h.74v-11.91h19.53v71.601q0 9.049-4.44 15.142c-2.95 4.063-7.04 7.11-12.28 9.141-5.2 2.062-11.18 3.093-17.95 3.093m.41-43.856c3.17 0 5.85-.785 8.03-2.355 2.22-1.6 3.91-3.878 5.08-6.832q1.8-4.479 1.8-10.71c0-4.155-.58-7.756-1.75-10.803-1.17-3.078-2.86-5.463-5.08-7.156-2.21-1.692-4.91-2.539-8.08-2.539-3.23 0-5.95.877-8.17 2.632-2.21 1.723-3.89 4.124-5.03 7.201q-1.71 4.617-1.71 10.665 0 6.14 1.71 10.617c1.17 2.955 2.85 5.248 5.03 6.879 2.22 1.6 4.94 2.4 8.17 2.4m-932.711 95.344h-20.22q-.553-3.924-2.262-6.971a17.7 17.7 0 0 0-4.385-5.263q-2.677-2.17-6.186-3.324-3.463-1.154-7.525-1.154-7.34 0-12.788 3.647-5.448 3.6-8.448 10.525-3.001 6.88-3.001 16.712 0 10.11 3.001 16.989 3.047 6.878 8.494 10.387 5.448 3.508 12.603 3.508 4.016 0 7.433-1.061 3.462-1.062 6.14-3.093a17.8 17.8 0 0 0 4.431-5.032q1.801-2.955 2.493-6.74l20.22.092q-.785 6.509-3.923 12.557-3.094 6.001-8.356 10.756-5.217 4.709-12.465 7.479-7.201 2.724-16.296 2.723-12.65 0-22.621-5.724-9.926-5.725-15.696-16.573-5.724-10.85-5.724-26.268 0-15.465 5.817-26.314 5.816-10.848 15.788-16.527 9.972-5.724 22.436-5.724 8.217 0 15.234 2.308 7.063 2.309 12.511 6.74 5.447 4.386 8.864 10.756 3.462 6.371 4.431 14.589m46.001 62.83q-10.755 0-18.602-4.571-7.801-4.616-12.049-12.833-4.247-8.263-4.247-19.159 0-10.987 4.247-19.204 4.248-8.264 12.049-12.834 7.847-4.617 18.602-4.617c7.17 0 13.36 1.539 18.56 4.617 5.23 3.047 9.26 7.325 12.1 12.834 2.83 5.478 4.24 11.879 4.24 19.204 0 7.264-1.41 13.65-4.24 19.159-2.84 5.478-6.87 9.756-12.1 12.833-5.2 3.047-11.39 4.571-18.56 4.571m.1-15.235c3.26 0 5.98-.923 8.17-2.769 2.18-1.878 3.83-4.432 4.94-7.664 1.13-3.231 1.7-6.909 1.7-11.033s-.57-7.802-1.7-11.034c-1.11-3.231-2.76-5.786-4.94-7.663-2.19-1.877-4.91-2.816-8.17-2.816q-4.95 0-8.31 2.816-3.33 2.816-5.04 7.663c-1.1 3.232-1.66 6.91-1.66 11.034s.56 7.802 1.66 11.033q1.71 4.847 5.04 7.664 3.36 2.769 8.31 2.769m67.26-80.696v94.546h-19.67v-94.546zm35.42 0v94.546h-19.67v-94.546zm48.07 95.931q-10.95 0-18.84-4.432-7.845-4.478-12.09-12.649c-2.84-5.478-4.25-11.957-4.25-19.436 0-7.294 1.41-13.695 4.25-19.204 2.83-5.509 6.81-9.802 11.95-12.88 5.17-3.078 11.24-4.617 18.19-4.617 4.68 0 9.03.754 13.07 2.263 4.06 1.477 7.6 3.708 10.61 6.693q4.575 4.478 7.11 11.265c1.7 4.493 2.54 9.756 2.54 15.788v5.401h-59.87v-12.187h41.36c0-2.832-.62-5.34-1.85-7.525a13.24 13.24 0 0 0-5.12-5.124c-2.16-1.262-4.66-1.893-7.53-1.893-2.98 0-5.63.692-7.94 2.077a14.6 14.6 0 0 0-5.35 5.494c-1.29 2.277-1.96 4.816-1.99 7.617v11.587c0 3.509.65 6.54 1.94 9.095 1.33 2.554 3.19 4.524 5.59 5.909s5.25 2.077 8.54 2.077q3.27 0 6-.923c1.82-.615 3.37-1.539 4.66-2.77 1.3-1.231 2.28-2.739 2.96-4.524l18.19 1.2c-.93 4.371-2.82 8.187-5.68 11.449-2.83 3.232-6.5 5.755-10.99 7.571-4.46 1.785-9.62 2.678-15.46 2.678m77.32 26.683c-6.37 0-11.83-.877-16.39-2.631q-6.78-2.585-10.8-7.064-4.02-4.478-5.22-10.064l18.19-2.446c.56 1.415 1.43 2.739 2.63 3.97s2.79 2.216 4.76 2.954q3 1.155 7.29 1.155c4.28 0 7.81-1.047 10.58-3.14q4.2-3.093 4.2-10.387V233.59h-.83c-.87 1.97-2.16 3.832-3.88 5.586-1.73 1.754-3.94 3.185-6.65 4.293q-4.065 1.662-9.69 1.662-7.995 0-14.55-3.693-6.51-3.74-10.38-11.403-3.84-7.709-3.84-19.481 0-12.05 3.93-20.128c2.61-5.386 6.09-9.418 10.43-12.095 4.37-2.678 9.16-4.017 14.36-4.017 3.97 0 7.29.678 9.97 2.032 2.68 1.323 4.83 2.985 6.46 4.986 1.67 1.969 2.94 3.908 3.84 5.816h.73v-11.91h19.53v71.601c0 6.033-1.48 11.08-4.43 15.142-2.95 4.063-7.05 7.11-12.28 9.141-5.2 2.062-11.19 3.093-17.96 3.093m.42-43.857c3.17 0 5.85-.784 8.03-2.354 2.22-1.6 3.91-3.878 5.08-6.832q1.8-4.479 1.8-10.711c0-4.154-.59-7.755-1.76-10.802q-1.755-4.617-5.07-7.156c-2.22-1.692-4.91-2.539-8.08-2.539-3.23 0-5.96.877-8.17 2.632q-3.33 2.585-5.04 7.201c-1.13 3.078-1.7 6.633-1.7 10.664 0 4.094.57 7.633 1.7 10.618q1.755 4.433 5.04 6.879c2.21 1.6 4.94 2.4 8.17 2.4m82.22 17.174q-10.95 0-18.84-4.432-7.845-4.478-12.09-12.649c-2.83-5.478-4.25-11.957-4.25-19.436 0-7.294 1.42-13.695 4.25-19.204s6.81-9.802 11.95-12.88c5.17-3.078 11.24-4.617 18.19-4.617 4.68 0 9.04.754 13.07 2.263 4.06 1.477 7.6 3.708 10.61 6.693q4.575 4.478 7.11 11.265c1.7 4.493 2.54 9.756 2.54 15.788v5.401h-59.87v-12.187h41.36c0-2.832-.61-5.34-1.85-7.525a13.2 13.2 0 0 0-5.12-5.124c-2.15-1.262-4.66-1.893-7.52-1.893q-4.485 0-7.95 2.077a14.6 14.6 0 0 0-5.35 5.494c-1.29 2.277-1.95 4.816-1.99 7.617v11.587c0 3.509.65 6.54 1.94 9.095 1.33 2.554 3.19 4.524 5.59 5.909s5.25 2.077 8.54 2.077q3.285 0 6-.923c1.82-.615 3.37-1.539 4.66-2.77 1.3-1.231 2.28-2.739 2.96-4.524l18.19 1.2c-.93 4.371-2.82 8.187-5.68 11.449-2.83 3.232-6.49 5.755-10.99 7.571-4.46 1.785-9.62 2.678-15.46 2.678"/></svg>